<?xml version="1.0" encoding="UTF-8"?>
<!DOCTYPE xml>
<svg viewBox="0 0 211 60" fill="none" xmlns="http://www.w3.org/2000/svg">
  <path d="M147.537 32.4727H141.529L144.529 23.0644L147.537 32.4727Z" fill="currentColor" />
  <path fill-rule="evenodd" clip-rule="evenodd" d="M97.2513 20.0544C98.8476 10.4765 99.6458 5.68752 103.003 2.84376C106.36 0 111.215 0 120.925 0H180.263C189.973 0 194.828 0 198.185 2.84376C201.542 5.68752 202.34 10.4765 203.936 20.0544L205.936 32.0545C208.098 45.0268 209.179 51.513 205.584 55.7565C201.99 60 195.414 60 182.263 60H118.925C105.773 60 99.1978 60 95.603 55.7565C92.0082 51.513 93.0892 45.0268 95.2513 32.0544L97.2513 20.0544ZM125.852 20.8535V42H120.139V20.8535H112.51V16.4062H133.639V20.8535H125.852ZM156.701 42L147.191 16.4062H141.848L132.373 42H138.49L140.116 36.9023H148.954L150.584 42H156.701ZM168.18 25.125L163.68 16.4062H157.141L164.435 29.0977L156.947 42H163.557L168.18 33.123L172.82 42H179.412L171.941 29.0977L179.219 16.4062H172.68L168.18 25.125ZM187.85 16.4062V42H182.137V16.4062H187.85Z" fill="currentColor" />
  <path d="M20.1094 12.9375V26.1562H8.8125V12.9375H0V47.0625H8.8125V33.2344H20.1094V47.0625H28.875V12.9375H20.1094Z" fill="currentColor" />
  <path d="M57.4688 47.0625H33.75V12.9375H57.5391V20.0391H42.5625V26.1562H55.1484V32.9766H42.5625V39.9844H57.4688V47.0625Z" fill="currentColor" />
  <path d="M79.125 12.9375L73.2891 27.0469L67.4531 12.9375H57.9844L68.8359 34.9219V47.0625H77.7656V34.9219L88.5938 12.9375H79.125Z" fill="currentColor" />
</svg>