<?xml version="1.0" encoding="UTF-8"?>
<!DOCTYPE xml>
<svg height="99" viewBox="0 0 115 99" fill="none" xmlns="http://www.w3.org/2000/svg">
  <path fill-rule="evenodd" clip-rule="evenodd" d="M9.74296 41.8438C6.38601 44.6875 5.58785 49.4765 3.99153 59.0544L1.99152 71.0544C-0.170539 84.0268 -1.25157 90.513 2.34321 94.7565C5.938 99 12.5137 99 25.665 99H89.0029C102.154 99 108.73 99 112.325 94.7565C115.919 90.513 114.838 84.0268 112.676 71.0545V71.0544L110.676 59.0544C109.08 49.4765 108.282 44.6875 104.925 41.8438C101.568 39 96.7129 39 87.0029 39H27.665C17.9549 39 13.0999 39 9.74296 41.8438ZM32.5917 81V59.8535H40.3789V55.4062H32.5917H26.8789H19.2499V59.8535H26.8789V81H32.5917ZM52.455 55.4062H53.9316L63.4414 81H57.3242L55.6941 75.9023H46.8561L45.2304 81H39.1132L48.5878 55.4062H50.0117H52.455ZM48.2688 71.4727H54.2777L51.2693 62.0644L48.2688 71.4727ZM70.4199 55.4062L74.9199 64.125L79.4199 55.4062H85.9589L78.6816 68.0977L86.1523 81H79.5605L74.9199 72.123L70.2968 81H63.6874L71.1757 68.0977L63.8808 55.4062H70.4199ZM94.5898 81V55.4062H88.8769V81H94.5898Z" fill="currentColor" />
  <path d="M40.8155 20.4382H25.5798V14.0082H40.8155V20.4382ZM28.1922 33H20.334V2H28.1922V33ZM46.0821 33H38.2657V2H46.0821V33Z" fill="currentColor" />
  <path d="M71.5795 33H55.5078V26.5701H71.5795V33ZM58.2874 33H50.4292V2H58.2874V33ZM69.5104 20.204H55.5078V14.0082H69.5104V20.204ZM71.6422 8.45124H55.5078V2H71.6422V8.45124Z" fill="currentColor" />
  <path d="M85.6866 14.8173L90.8906 2H99.334L89.6784 21.9712V33H81.7157V21.9712L72.0393 2H80.4827L85.6866 14.8173Z" fill="currentColor" />
</svg>