<?xml version="1.0" encoding="UTF-8"?>
<!DOCTYPE xml>
<svg width="32" height="32" viewBox="0 0 32 32" fill="none" xmlns="http://www.w3.org/2000/svg">
  <path fill-rule="evenodd" clip-rule="evenodd" d="M8.17229 23.7283C8.39879 22.8682 8.85261 22.0766 9.49608 21.4416C10.4298 20.5202 11.6882 20.0025 13 20H19C20.3118 20.0025 21.5702 20.5202 22.5039 21.4416C23.1474 22.0766 23.6012 22.8682 23.8277 23.7283C25.7892 21.7418 27 19.0123 27 16C27 9.92487 22.0751 5 16 5C9.92487 5 5 9.92487 5 16C5 19.0123 6.21081 21.7418 8.17229 23.7283ZM15.9038 29.9997C8.21609 29.9479 2 23.6999 2 16C2 8.26801 8.26801 2 16 2C23.732 2 30 8.26801 30 16C30 23.7038 23.7777 29.9542 16.0846 29.9998C16.0244 30.0001 15.9641 30.0001 15.9038 29.9997ZM16 8C15.0111 8 14.0444 8.29325 13.2222 8.84265C12.3999 9.39206 11.759 10.173 11.3806 11.0866C11.0022 12.0002 10.9031 13.0055 11.0961 13.9755C11.289 14.9454 11.7652 15.8363 12.4645 16.5355C13.1637 17.2348 14.0546 17.711 15.0246 17.9039C15.9945 18.0969 16.9998 17.9978 17.9134 17.6194C18.8271 17.241 19.6079 16.6001 20.1574 15.7779C20.7068 14.9556 21 13.9889 21 13C21 11.6739 20.4732 10.4021 19.5355 9.46447C18.5979 8.52678 17.3261 8 16 8Z" fill="currentColor" />
</svg>