<?xml version="1.0" encoding="UTF-8"?>
<!DOCTYPE xml>
<svg width="16" height="17" viewBox="0 0 16 17" fill="none" xmlns="http://www.w3.org/2000/svg">
  <path d="M7.24701 11.64L2.45101 6.158C1.88501 5.513 2.34501 4.5 3.20401 4.5H12.796C12.9883 4.49984 13.1765 4.55509 13.3381 4.65914C13.4998 4.76319 13.628 4.91164 13.7075 5.08669C13.7869 5.26175 13.8142 5.456 13.7861 5.64618C13.758 5.83636 13.6757 6.01441 13.549 6.159L8.75301 11.639C8.65915 11.7464 8.5434 11.8325 8.41352 11.8915C8.28364 11.9505 8.14265 11.981 8.00001 11.981C7.85737 11.981 7.71638 11.9505 7.5865 11.8915C7.45663 11.8325 7.34087 11.7464 7.24701 11.639V11.64Z" fill="currentColor" />
</svg>