<?xml version="1.0" encoding="UTF-8"?>
<!DOCTYPE xml>
<svg width="32" height="32" viewBox="0 0 32 32" fill="none" xmlns="http://www.w3.org/2000/svg">
  <path fill-rule="evenodd" clip-rule="evenodd" d="M27 16C27 22.0751 22.0751 27 16 27C9.92487 27 5 22.0751 5 16C5 9.92487 9.92487 5 16 5C22.0751 5 27 9.92487 27 16ZM30 16C30 23.732 23.732 30 16 30C8.26801 30 2 23.732 2 16C2 8.26801 8.26801 2 16 2C23.732 2 30 8.26801 30 16ZM14.0005 12.8865V8.82837C14.0005 8.37082 14.3713 8 14.8289 8H17.6863C18.1438 8 18.5146 8.37082 18.5146 8.82837V16.2568C18.5146 16.3704 18.4578 16.4571 18.401 16.5423L17.6863 17.2571C17.5143 17.429 17.5143 17.6862 17.6863 17.8283L18.401 18.543C18.4394 18.5796 18.4695 18.6241 18.4891 18.6733C18.5087 18.7226 18.5174 18.7756 18.5146 18.8286V22.8852C18.5146 23.1049 18.4274 23.3156 18.272 23.4709C18.1167 23.6263 17.906 23.7136 17.6863 23.7136H14.8289C14.6092 23.7136 14.3985 23.6263 14.2431 23.4709C14.0878 23.3156 14.0005 23.1049 14.0005 22.8852V15.4568C14.0005 15.3432 14.0573 15.2564 14.1141 15.1712L14.8289 14.4565C15.0008 14.2845 15.0008 14.0273 14.8289 13.8853L14.1141 13.1706C14.0758 13.1343 14.0457 13.0901 14.0261 13.041C14.0065 12.992 13.9977 12.9392 14.0005 12.8865Z" fill="currentColor" />
</svg>