<?xml version="1.0" encoding="UTF-8"?>
<!DOCTYPE xml>
<svg width="24" height="25" viewBox="0 0 24 25" fill="none" xmlns="http://www.w3.org/2000/svg">
  <path d="M8.08244 9.21401V15.974L4.70244 12.594L8.08244 9.21401ZM3.29244 11.884C3.19974 11.9765 3.12619 12.0864 3.07601 12.2074C3.02583 12.3284 3 12.458 3 12.589C3 12.72 3.02583 12.8497 3.07601 12.9706C3.12619 13.0916 3.19974 13.2015 3.29244 13.294L7.88244 17.884C8.50244 18.514 9.58244 18.074 9.58244 17.184V8.00401C9.58244 7.11401 8.50244 6.66401 7.87244 7.29401L3.29244 11.884V11.884ZM13.5824 8.00401V17.174C13.5824 18.064 14.6624 18.514 15.2924 17.884L19.8824 13.294C19.9751 13.2015 20.0487 13.0916 20.0989 12.9706C20.1491 12.8497 20.1749 12.72 20.1749 12.589C20.1749 12.458 20.1491 12.3284 20.0989 12.2074C20.0487 12.0864 19.9751 11.9765 19.8824 11.884L15.2924 7.29401C14.6624 6.67401 13.5824 7.11401 13.5824 8.00401Z" fill="currentColor" />
</svg>