<?xml version="1.0" encoding="UTF-8"?>
<!DOCTYPE xml>
<svg width="24" height="25" viewBox="0 0 24 25" fill="none" xmlns="http://www.w3.org/2000/svg">
    <path d="M6.5 8.61C5.61 8.61 4.89 7.89 4.89 7C4.89 6.573 5.05962 6.16349 5.36156 5.86156C5.66349 5.55962 6.073 5.39 6.5 5.39C7.39 5.39 8.11 6.11 8.11 7C8.11 7.427 7.94038 7.83651 7.63844 8.13844C7.33651 8.44038 6.927 8.61 6.5 8.61V8.61ZM6.5 2.5C4 2.5 2 4.5 2 7C2 10.37 6.5 15.36 6.5 15.36C6.5 15.36 11 10.37 11 7C11 4.5 9 2.5 6.5 2.5ZM17.5 8.61C17.073 8.61 16.6635 8.44038 16.3616 8.13844C16.0596 7.83651 15.89 7.427 15.89 7C15.89 6.78857 15.9316 6.57921 16.0126 6.38388C16.0935 6.18855 16.2121 6.01106 16.3616 5.86156C16.5111 5.71206 16.6885 5.59346 16.8839 5.51255C17.0792 5.43164 17.2886 5.39 17.5 5.39C17.7114 5.39 17.9208 5.43164 18.1161 5.51255C18.3115 5.59346 18.4889 5.71206 18.6384 5.86156C18.7879 6.01106 18.9065 6.18855 18.9874 6.38388C19.0684 6.57921 19.11 6.78857 19.11 7C19.11 7.427 18.9404 7.83651 18.6384 8.13844C18.3365 8.44038 17.927 8.61 17.5 8.61ZM17.5 2.5C15 2.5 13 4.5 13 7C13 10.37 17.5 15.36 17.5 15.36C17.5 15.36 22 10.37 22 7C22 4.5 20 2.5 17.5 2.5V2.5ZM17.5 16.5C16.23 16.5 15.1 17.3 14.68 18.5H9.32C9.05502 17.7516 8.50416 17.1387 7.78813 16.7957C7.0721 16.4527 6.24929 16.4075 5.5 16.67C5.12758 16.8005 4.78453 17.0031 4.49047 17.2663C4.19641 17.5294 3.95709 17.8479 3.78621 18.2036C3.61532 18.5593 3.51622 18.9452 3.49456 19.3393C3.47291 19.7333 3.52913 20.1277 3.66 20.5C3.92857 21.2504 4.48314 21.864 5.20261 22.2069C5.92209 22.5498 6.748 22.594 7.5 22.33C8.35 22.03 9 21.35 9.32 20.5H14.69C15.24 22.06 16.96 22.88 18.5 22.33C18.8736 22.2008 19.2179 21.9992 19.5133 21.7365C19.8086 21.4739 20.0492 21.1554 20.2211 20.7995C20.393 20.4436 20.4929 20.0573 20.515 19.6626C20.5371 19.268 20.481 18.8729 20.35 18.5C19.92 17.3 18.78 16.5 17.5 16.5ZM17.5 21C17.1022 21 16.7206 20.842 16.4393 20.5607C16.158 20.2794 16 19.8978 16 19.5C16 19.1022 16.158 18.7206 16.4393 18.4393C16.7206 18.158 17.1022 18 17.5 18C17.8978 18 18.2794 18.158 18.5607 18.4393C18.842 18.7206 19 19.1022 19 19.5C19 19.8978 18.842 20.2794 18.5607 20.5607C18.2794 20.842 17.8978 21 17.5 21Z" fill="currentColor" />
</svg>