<?xml version="1.0" encoding="UTF-8"?>
<!DOCTYPE xml>
<svg width="24" height="24" viewBox="0 0 24 24" fill="none" xmlns="http://www.w3.org/2000/svg">
  <path d="M2 12C2 14.3869 2.94821 16.6761 4.63604 18.364C6.32387 20.0518 8.61305 21 11 21C13.39 21 15.68 20.06 17.4 18.4L15.9 16.9C15.2702 17.5664 14.5104 18.0966 13.6676 18.4578C12.8248 18.819 11.9169 19.0036 11 19C4.76 19 1.64 11.46 6.05 7.05C10.46 2.64 18 5.77 18 12H15L19 16H19.1L23 12H20C20 9.61305 19.0518 7.32387 17.364 5.63604C15.6761 3.94821 13.3869 3 11 3C8.61305 3 6.32387 3.94821 4.63604 5.63604C2.94821 7.32387 2 9.61305 2 12Z" fill="currentColor" />
</svg>